<svg width="580" height="400" xmlns="http://www.w3.org/2000/svg">
 <!-- Created with Method Draw - http://github.com/duopixel/Method-Draw/ -->

 <g>
  <title>background</title>
  <rect fill="#fff" id="canvas_background" height="402" width="582" y="-1" x="-1"/>
  <g display="none" overflow="visible" y="0" x="0" height="100%" width="100%" id="canvasGrid">
   <rect fill="url(#gridpattern)" stroke-width="0" y="0" x="0" height="100%" width="100%"/>
  </g>
 </g>
 <g>
  <title>Layer 1</title>
  <g stroke="null" id="svg_11">
   <g stroke="null" id="svg_5">
    <path stroke="null" id="svg_4" d="m350.783263,261.059415l-120.792686,0a4.645873,7.21297 0 0 0 -4.645872,7.21297l0,14.425939a4.645873,7.21297 0 0 0 4.645872,7.21297l120.792686,0a4.645873,7.21297 0 0 0 4.645873,-7.21297l0,-14.425939a4.645873,7.21297 0 0 0 -4.645873,-7.21297zm0,-57.703757l-120.792686,0a4.645873,7.21297 0 0 0 -4.645872,7.21297l0,14.425939a4.645873,7.21297 0 0 0 4.645872,7.21297l120.792686,0a4.645873,7.21297 0 0 0 4.645873,-7.21297l0,-14.425939a4.645873,7.21297 0 0 0 -4.645873,-7.21297zm0,-57.703757l-120.792686,0a4.645873,7.21297 0 0 0 -4.645872,7.21297l0,14.425939a4.645873,7.21297 0 0 0 4.645872,7.21297l120.792686,0a4.645873,7.21297 0 0 0 4.645873,-7.21297l0,-14.425939a4.645873,7.21297 0 0 0 -4.645873,-7.21297zm0,-57.703757l-120.792686,0a4.645873,7.21297 0 0 0 -4.645872,7.21297l0,14.425939a4.645873,7.21297 0 0 0 4.645872,7.212969l120.792686,0a4.645873,7.21297 0 0 0 4.645873,-7.212969l0,-14.425939a4.645873,7.21297 0 0 0 -4.645873,-7.21297z" fill="currentColor"/>
   </g>
   <g stroke="null" id="svg_35">
    <path stroke="null" id="svg_34" d="m182.413302,261.059415l-120.792686,0a4.645873,7.21297 0 0 0 -4.645872,7.21297l0,14.425939a4.645873,7.21297 0 0 0 4.645872,7.21297l120.792686,0a4.645873,7.21297 0 0 0 4.645873,-7.21297l0,-14.425939a4.645873,7.21297 0 0 0 -4.645873,-7.21297zm0,-57.703757l-120.792686,0a4.645873,7.21297 0 0 0 -4.645872,7.21297l0,14.425939a4.645873,7.21297 0 0 0 4.645872,7.21297l120.792686,0a4.645873,7.21297 0 0 0 4.645873,-7.21297l0,-14.425939a4.645873,7.21297 0 0 0 -4.645873,-7.21297zm0,-57.703757l-120.792686,0a4.645873,7.21297 0 0 0 -4.645872,7.21297l0,14.425939a4.645873,7.21297 0 0 0 4.645872,7.21297l120.792686,0a4.645873,7.21297 0 0 0 4.645873,-7.21297l0,-14.425939a4.645873,7.21297 0 0 0 -4.645873,-7.21297zm0,-57.703757l-120.792686,0a4.645873,7.21297 0 0 0 -4.645872,7.21297l0,14.425939a4.645873,7.21297 0 0 0 4.645872,7.212969l120.792686,0a4.645873,7.21297 0 0 0 4.645873,-7.212969l0,-14.425939a4.645873,7.21297 0 0 0 -4.645873,-7.21297z" fill="currentColor"/>
   </g>
   <g stroke="null" id="svg_37">
    <path stroke="null" id="svg_36" d="m520.9587,261.059415l-120.792686,0a4.645873,7.21297 0 0 0 -4.645872,7.21297l0,14.425939a4.645873,7.21297 0 0 0 4.645872,7.21297l120.792686,0a4.645873,7.21297 0 0 0 4.645873,-7.21297l0,-14.425939a4.645873,7.21297 0 0 0 -4.645873,-7.21297zm0,-57.703757l-120.792686,0a4.645873,7.21297 0 0 0 -4.645872,7.21297l0,14.425939a4.645873,7.21297 0 0 0 4.645872,7.21297l120.792686,0a4.645873,7.21297 0 0 0 4.645873,-7.21297l0,-14.425939a4.645873,7.21297 0 0 0 -4.645873,-7.21297zm0,-57.703757l-120.792686,0a4.645873,7.21297 0 0 0 -4.645872,7.21297l0,14.425939a4.645873,7.21297 0 0 0 4.645872,7.21297l120.792686,0a4.645873,7.21297 0 0 0 4.645873,-7.21297l0,-14.425939a4.645873,7.21297 0 0 0 -4.645873,-7.21297zm0,-57.703757l-120.792686,0a4.645873,7.21297 0 0 0 -4.645872,7.21297l0,14.425939a4.645873,7.21297 0 0 0 4.645872,7.212969l120.792686,0a4.645873,7.21297 0 0 0 4.645873,-7.212969l0,-14.425939a4.645873,7.21297 0 0 0 -4.645873,-7.21297z" fill="currentColor"/>
   </g>
  </g>
 </g>
</svg>