<svg width="580" height="400" xmlns="http://www.w3.org/2000/svg">
 <!-- Created with Method Draw - http://github.com/duopixel/Method-Draw/ -->

 <g>
  <title>background</title>
  <rect fill="#fff" id="canvas_background" height="402" width="582" y="-1" x="-1"/>
  <g display="none" overflow="visible" y="0" x="0" height="100%" width="100%" id="canvasGrid">
   <rect fill="url(#gridpattern)" stroke-width="0" y="0" x="0" height="100%" width="100%"/>
  </g>
 </g>
 <g>
  <title>Layer 1</title>
  <g id="svg_11">
   <g stroke="null" id="svg_10">
    <path stroke="null" id="svg_9" d="m370.996496,267.474411l-154.975469,0c-9.875961,0 -17.881785,-8.005824 -17.881785,-17.881785l0,-107.29071c0,-9.875961 8.005824,-17.881785 17.881785,-17.881785l154.975469,0c9.875961,0 17.881785,8.005824 17.881785,17.881785l0,107.29071c0,9.875961 -8.005824,17.881785 -17.881785,17.881785zm-131.133089,-122.192197c-11.52183,0 -20.862082,9.340252 -20.862082,20.862082s9.340252,20.862082 20.862082,20.862082s20.862082,-9.340252 20.862082,-20.862082s-9.340252,-20.862082 -20.862082,-20.862082zm-17.881785,98.349817l143.054279,0l0,-41.724165l-32.602592,-32.602592c-1.745709,-1.745709 -4.576247,-1.745709 -6.322329,0l-50.484004,50.484377l-20.681402,-20.681402c-1.745709,-1.745709 -4.576247,-1.745709 -6.322329,0l-26.641624,26.641997l0,17.881785z" fill="currentColor"/>
   </g>
  </g>
 </g>
</svg>