<svg width="580" height="400" xmlns="http://www.w3.org/2000/svg">
 <!-- Created with Method Draw - http://github.com/duopixel/Method-Draw/ -->

 <g>
  <title>background</title>
  <rect fill="#fff" id="canvas_background" height="402" width="582" y="-1" x="-1"/>
  <g display="none" overflow="visible" y="0" x="0" height="100%" width="100%" id="canvasGrid">
   <rect fill="url(#gridpattern)" stroke-width="0" y="0" x="0" height="100%" width="100%"/>
  </g>
 </g>
 <g>
  <title>Layer 1</title>
  <g id="svg_11">
   <g stroke="null" id="svg_5">
    <path stroke="null" id="svg_4" d="m513.128441,261.059415l-187.537211,0a7.21297,7.21297 0 0 0 -7.212969,7.21297l0,14.425939a7.21297,7.21297 0 0 0 7.212969,7.21297l187.537211,0a7.21297,7.21297 0 0 0 7.21297,-7.21297l0,-14.425939a7.21297,7.21297 0 0 0 -7.21297,-7.21297zm0,-57.703757l-187.537211,0a7.21297,7.21297 0 0 0 -7.212969,7.21297l0,14.425939a7.21297,7.21297 0 0 0 7.212969,7.21297l187.537211,0a7.21297,7.21297 0 0 0 7.21297,-7.21297l0,-14.425939a7.21297,7.21297 0 0 0 -7.21297,-7.21297zm0,-57.703757l-187.537211,0a7.21297,7.21297 0 0 0 -7.212969,7.21297l0,14.425939a7.21297,7.21297 0 0 0 7.212969,7.21297l187.537211,0a7.21297,7.21297 0 0 0 7.21297,-7.21297l0,-14.425939a7.21297,7.21297 0 0 0 -7.21297,-7.21297zm0,-57.703757l-187.537211,0a7.21297,7.21297 0 0 0 -7.212969,7.21297l0,14.425939a7.21297,7.21297 0 0 0 7.212969,7.212969l187.537211,0a7.21297,7.21297 0 0 0 7.21297,-7.212969l0,-14.425939a7.21297,7.21297 0 0 0 -7.21297,-7.21297z" fill="currentColor"/>
   </g>
   <g stroke="null" id="svg_35">
    <path stroke="null" id="svg_34" d="m251.724924,261.059415l-187.537211,0a7.21297,7.21297 0 0 0 -7.212969,7.21297l0,14.425939a7.21297,7.21297 0 0 0 7.212969,7.21297l187.537211,0a7.21297,7.21297 0 0 0 7.21297,-7.21297l0,-14.425939a7.21297,7.21297 0 0 0 -7.21297,-7.21297zm0,-57.703757l-187.537211,0a7.21297,7.21297 0 0 0 -7.212969,7.21297l0,14.425939a7.21297,7.21297 0 0 0 7.212969,7.21297l187.537211,0a7.21297,7.21297 0 0 0 7.21297,-7.21297l0,-14.425939a7.21297,7.21297 0 0 0 -7.21297,-7.21297zm0,-57.703757l-187.537211,0a7.21297,7.21297 0 0 0 -7.212969,7.21297l0,14.425939a7.21297,7.21297 0 0 0 7.212969,7.21297l187.537211,0a7.21297,7.21297 0 0 0 7.21297,-7.21297l0,-14.425939a7.21297,7.21297 0 0 0 -7.21297,-7.21297zm0,-57.703757l-187.537211,0a7.21297,7.21297 0 0 0 -7.212969,7.21297l0,14.425939a7.21297,7.21297 0 0 0 7.212969,7.212969l187.537211,0a7.21297,7.21297 0 0 0 7.21297,-7.212969l0,-14.425939a7.21297,7.21297 0 0 0 -7.21297,-7.21297z" fill="currentColor"/>
   </g>
  </g>
 </g>
</svg>