<?xml version="1.0" encoding="utf-8"?>
<!-- Generator: Adobe Illustrator 23.0.6, SVG Export Plug-In . SVG Version: 6.00 Build 0)  -->
<svg version="1.1" id="Capa_1" xmlns="http://www.w3.org/2000/svg" xmlns:xlink="http://www.w3.org/1999/xlink" x="0px" y="0px"
	style="enable-background:new 0 0 1366 1358;" xml:space="preserve">
<style type="text/css">
	.st0{opacity:4.100000e-02;}
	.st1{fill:#6200EE;}
</style>
<g class="st0">
	<ellipse class="st1" cx="27.5" cy="741.5" rx="617.5" ry="616.5"/>
	<ellipse class="st1" cx="1171.9" cy="1283.9" rx="347.9" ry="347.4"/>
	<circle class="st1" cx="1288.5" cy="282.5" r="535.5"/>
	<path class="st1" d="M-77.2,20.2l773.6,774C730.3,828,776.2,847,824,847c47.9,0,93.7-19,127.6-52.9l773.6-774
		c70.4-70.5,70.4-184.8,0-255.3c-70.4-70.5-184.7-70.5-255.1,0L824,411.2L178-235.1c-70.4-70.5-184.7-70.5-255.1,0
		c-35.2,35.3-52.8,81.4-52.8,127.6C-130-61.3-112.4-15.1-77.2,20.2z"/>
</g>
</svg>
